<svg viewBox="0 0 300 120" xmlns="http://www.w3.org/2000/svg">
  <!-- Background circle -->
  <circle cx="60" cy="60" r="45" fill="#D4761A" opacity="0.1"/>
  
  <!-- African pot/cooking vessel -->
  <path d="M35 45 Q35 35 45 35 L75 35 Q85 35 85 45 L82 70 Q80 80 70 80 L50 80 Q40 80 38 70 Z" 
        fill="#8B4513" stroke="#654321" stroke-width="2"/>
  
  <!-- Steam lines -->
  <path d="M45 32 Q47 28 45 24" stroke="#FF6B35" stroke-width="2" fill="none" stroke-linecap="round"/>
  <path d="M55 30 Q57 26 55 22" stroke="#FF6B35" stroke-width="2" fill="none" stroke-linecap="round"/>
  <path d="M65 32 Q67 28 65 24" stroke="#FF6B35" stroke-width="2" fill="none" stroke-linecap="round"/>
  
  <!-- Decorative African pattern on pot -->
  <path d="M42 50 L48 50 M52 50 L58 50 M62 50 L68 50" stroke="#F4A460" stroke-width="1.5"/>
  <path d="M42 55 L48 55 M52 55 L58 55 M62 55 L68 55" stroke="#F4A460" stroke-width="1.5"/>
  
  <!-- African geometric pattern elements -->
  <polygon points="15,25 25,25 20,15" fill="#D4761A"/>
  <polygon points="95,25 105,25 100,15" fill="#D4761A"/>
  
  <!-- Restaurant name -->
  <text x="130" y="45" font-family="serif" font-size="28" font-weight="bold" fill="#2C5530">
    SIWAKA
  </text>
  
  <!-- Subtitle -->
  <text x="130" y="65" font-family="sans-serif" font-size="14" fill="#D4761A" font-weight="600">
    DISHES
  </text>
  
  <!-- Tagline -->
  <text x="130" y="82" font-family="sans-serif" font-size="10" fill="#666" font-style="italic">
    Authentic African Cuisine
  </text>
  
  <!-- Decorative underline -->
  <line x1="130" y1="70" x2="240" y2="70" stroke="#D4761A" stroke-width="2"/>
  
  <!-- Small decorative elements -->
  <circle cx="245" cy="40" r="3" fill="#D4761A"/>
  <circle cx="255" cy="40" r="2" fill="#FF6B35"/>
  <circle cx="245" cy="85" r="2" fill="#2C5530"/>
  <circle cx="255" cy="85" r="3" fill="#D4761A"/>
  
  <!-- African-inspired border pattern -->
  <rect x="5" y="5" width="290" height="110" fill="none" stroke="#D4761A" stroke-width="1" opacity="0.3"/>
  <rect x="8" y="8" width="284" height="104" fill="none" stroke="#2C5530" stroke-width="0.5" opacity="0.5"/>
</svg>